<svg width="48" height="48" viewBox="0 0 48 48" fill="none" xmlns="http://www.w3.org/2000/svg">
<g clip-path="url(#clip0_304_127)">
<path d="M38.1859 15.7232C38.3419 15.8792 38.5459 15.9568 38.7499 15.9568C38.9538 15.9568 39.1582 15.8788 39.3142 15.7232L44.8725 10.1648C46.4648 8.57217 46.4648 5.9805 44.8725 4.38785C43.2799 2.79483 40.6878 2.79556 39.0956 4.38785L38.7499 4.73282L38.4049 4.38785C36.8115 2.7952 34.2206 2.7952 32.6279 4.38785C31.8563 5.15945 31.4311 6.18521 31.4311 7.27615C31.4311 8.3671 31.8563 9.39322 32.6279 10.1645L38.1859 15.7232ZM33.7562 5.51614C34.2418 5.03055 34.879 4.78848 35.5162 4.78848C36.1534 4.78848 36.7914 5.03091 37.2766 5.51614L38.1859 6.42581C38.3357 6.57523 38.5385 6.65945 38.7499 6.65945C38.9615 6.65945 39.1644 6.57523 39.3142 6.42581L40.2239 5.51614C41.195 4.54459 42.7738 4.54568 43.7442 5.51614C44.7147 6.4866 44.7147 8.06607 43.7442 9.03653L38.7499 14.0305L33.7562 9.03653C33.286 8.56631 33.0267 7.94083 33.0267 7.27652C33.0271 6.61148 33.286 5.98599 33.7562 5.51614Z" fill="#FF2625"/>
<path d="M46.2329 46.2794C39.4129 47.036 34.0044 44.0163 33.9502 43.9859C33.7667 43.8811 33.5492 43.8529 33.3452 43.909C33.2591 43.932 24.6806 46.2315 17.7713 44.6978C13.464 43.7401 9.40121 40.7061 6.43454 38.4909C6.0361 38.1935 5.65854 37.9112 5.30405 37.6522C4.81992 37.2981 4.05014 37.0037 3.37155 36.7437C3.06686 36.6272 2.64938 36.4672 2.55966 36.4112C2.48203 36.3504 2.43954 36.261 2.43954 36.1588V34.3095C2.478 32.8461 8.61349 10.3289 9.56491 7.46438C9.58835 7.43069 9.6799 7.3644 9.74728 7.33254L21.8894 1.78664L25.8148 6.89712C26.0085 7.16189 25.9902 7.53213 25.7719 7.77639L21.893 12.1248C21.6392 12.4097 21.2119 12.4408 20.9467 12.2193L19.3783 10.7731C19.1944 10.6039 18.933 10.5479 18.688 10.5929C18.4422 10.6369 18.2225 10.8119 18.109 11.0346C17.9779 11.2927 16.7903 11.6092 15.5788 11.6183L15.1841 11.5784C14.8676 11.5407 14.5608 11.7058 14.4062 11.9845C14.2509 12.2632 14.2773 12.6074 14.4721 12.8601C14.8091 13.2956 15.0716 13.6453 15.2203 13.846L15.9967 27.0431C15.5155 28.9174 15.0746 29.4499 14.9651 29.5564C14.6417 29.6586 14.407 29.9607 14.407 30.3174C14.407 30.758 14.7644 31.1154 15.2049 31.1154C16.1098 31.1154 16.8789 29.9263 17.4963 27.6049C23.8424 22.8566 29.3806 27.3379 29.8149 27.7067C31.8305 29.7296 31.9554 31.0733 31.9594 31.133C31.969 31.5651 32.3224 31.913 32.7574 31.913C33.198 31.913 33.5554 31.5559 33.5554 31.1154C33.5554 30.9319 33.4887 29.3576 31.4237 27.083C33.3712 24.6887 35.5886 23.3096 38.0308 23.0093C42.2415 22.4907 45.781 25.3223 45.8165 25.3505C46.1585 25.6288 46.6602 25.5775 46.9386 25.2362C47.2169 24.8953 47.1667 24.3936 46.8261 24.1149C46.6613 23.9805 42.7433 20.8285 37.8521 21.4236C34.9931 21.7704 32.4267 23.3166 30.2144 26.0229C28.4189 24.8019 23.2707 22.0385 17.5132 25.6526L16.799 13.516C16.7917 13.3849 16.7514 13.2578 16.683 13.1461C17.3971 13.0615 18.2474 12.8751 18.8641 12.4694L19.8921 13.4168C20.849 14.2199 22.2505 14.1199 23.0832 13.1875L26.9621 8.83877C27.6777 8.03713 27.7374 6.82497 27.0918 5.94094L22.7675 0.31118C22.542 0.0171131 22.1428 -0.0828625 21.8033 0.0716785L9.09396 5.87685C8.96103 5.93508 8.28683 6.26138 8.06528 6.92788C7.61337 8.28432 0.843964 32.426 0.843964 34.3069V36.1592C0.843964 36.7536 1.11093 37.3032 1.57565 37.6676C1.8082 37.8496 2.15573 37.9873 2.80136 38.2342C3.3287 38.4363 4.05051 38.7121 4.36215 38.9402C4.71298 39.1966 5.08578 39.4752 5.47983 39.7697C8.56222 42.0717 12.7835 45.224 17.4256 46.2556C24.0339 47.7241 31.7913 45.9488 33.4539 45.5298C34.5643 46.1037 38.638 47.9995 43.9712 47.9995C44.7581 47.9995 45.573 47.9585 46.409 47.8651C46.847 47.8168 47.1623 47.422 47.114 46.9844C47.0649 46.5457 46.669 46.2278 46.2329 46.2794Z" fill="#3A1212"/>
<path d="M42.3249 36.6116C42.2809 36.2124 41.9429 35.9019 41.5316 35.9019C41.0911 35.9019 40.7337 36.2593 40.7337 36.6998C40.7337 37.2327 41.1274 39.037 46.1877 39.88C46.232 39.8873 46.2763 39.891 46.3195 39.891C46.7026 39.891 47.0406 39.6145 47.1058 39.2245C47.1779 38.7898 46.8842 38.3789 46.4499 38.306C42.9112 37.7164 42.3721 36.7178 42.3249 36.6116Z" fill="#FF2625"/>
<path d="M27.006 40.7068C16.5562 42.9451 12.0844 35.7952 11.8995 35.4902C11.6713 35.1133 11.1824 34.9921 10.8056 35.2184C10.4277 35.4451 10.3054 35.9351 10.532 36.313C10.5848 36.4006 11.8544 38.4847 14.5691 40.2601C16.4398 41.4828 19.2922 42.7287 23.1502 42.7287C24.4352 42.7287 25.8316 42.5906 27.34 42.2676C27.7711 42.1753 28.0457 41.7509 27.9534 41.3202C27.8608 40.8896 27.4371 40.6138 27.006 40.7068Z" fill="#FF2625"/>
</g>
<defs>
<clipPath id="clip0_304_127">
<rect width="48" height="48" fill="white" transform="translate(0 -0.000488281)"/>
</clipPath>
</defs>
</svg>
